PathFileType	4	(X/Y/Z)	C:\Users\°ÂÌØÂü\Desktop\20210112\bx_y_0_1801-Unnamed.trc
DataRate	CameraRate	NumFrames	NumMarkers	Units	OrigDataRate	OrigDataStartFrame	OrigNumFrames
50.00	50.00	       7	0	mm	50.00	443	       708
Frame#	Time	
		

443	8.840	-676.95465	-58.27342	1554.83167	-701.26123	-48.15228	720.23853	-590.11102	-1.40319	801.70044	-637.26141	284.22522	878.27277	-583.95892	219.28323	815.03497	-693.77008	83.49094	577.57367	-691.19855	277.02469	750.24512	-689.90381	144.31941	576.61078	-727.92944	246.87480	578.36536	-672.11444	19.85430	521.24274	-770.49988	255.42171	504.92062	-675.68231	205.97682	533.45880	-722.98120	251.66003	642.35376	-666.25714	-68.44304	161.60121	-710.90698	152.08485	216.62498	-882.67688	296.08038	144.42899	-674.47614	54.14805	157.90259	-603.11542	17.71526	166.69798	-594.35303	223.01906	173.13541	-667.65234	299.47864	159.53876	-630.44604	307.75934	162.13661	-560.85144	261.98569	166.21227	-528.19830	304.30228	146.37737	-690.30579	129.75565	1853.76208	-692.55035	306.05005	1531.69727	-624.79633	-80.21194	158.38722	-517.72675	-72.26929	142.89160	-795.21332	171.22403	184.92630	-770.98950	220.97839	205.06383	-790.19849	103.20405	1060.98035	-767.93964	-3.74393	208.05220	-793.35498	57.67678	175.89481	-769.01855	-31.17542	491.00592	-561.75879	-41.40805	165.46454	-876.00970	-78.74700	141.30463	-602.76978	116.72620	1438.93701	-706.25018	-25.70245	616.19641	-720.37738	-22.64561	569.39746	-674.98090	173.61920	156.06351	-591.61255	-4.82738	1050.39453	-580.32874	223.49329	1067.87573	-647.12122	-68.61452	865.08521	-715.40839	77.69425	216.29109	
444	8.860	-676.69373	-58.36956	1554.83191	-701.11395	-48.34534	720.45404	-590.31183	-1.61947	801.47882	-637.35028	284.02548	878.10986	-583.95892	219.28323	815.03497	-693.73761	83.38930	577.65936	-690.96399	276.59036	750.01117	-689.86450	144.42871	576.70593	-727.83386	246.71719	578.16669	-672.24481	19.87942	521.23090	-770.52161	255.52087	504.99155	-675.69836	205.89597	533.22101	-722.97705	251.59367	642.35608	-666.23932	-68.41050	161.54005	-710.82416	152.04512	216.56047	-882.56525	295.91370	144.40141	-674.47614	54.14805	157.90259	-603.16760	17.65013	166.71321	-594.55530	222.87230	173.25008	-667.68225	299.42529	159.44418	-630.39496	307.69977	162.53720	-560.91125	261.91193	166.16360	-528.20660	304.21338	146.40298	-690.28571	129.77234	1853.77429	-692.49316	305.93167	1531.70129	-624.69702	-80.22388	158.21712	-517.68665	-72.36559	142.76802	-795.23187	171.15752	184.83498	-770.99969	221.02937	205.14664	-790.06055	103.41539	1061.10693	-767.95154	-3.76406	208.08244	-793.26569	57.63107	176.01176	-768.97095	-31.23956	490.98074	-561.78705	-41.22388	165.58600	-876.03320	-78.59757	141.50241	-602.82050	116.82932	1438.85156	-706.24847	-25.42695	615.92126	-720.42999	-22.64525	569.54437	-674.88617	173.09485	156.46954	-591.83435	-4.90135	1050.49976	-580.37714	223.60019	1067.76990	-647.06598	-68.68186	865.08801	-715.24933	77.82565	216.47707	
445	8.880	-676.82922	-58.33119	1554.84155	-701.26123	-48.15228	720.23853	-589.59039	-2.16783	801.71552	-637.29797	284.04709	878.03625	-583.89447	219.24307	814.95996	-693.77008	83.49094	577.57367	-690.97424	276.76682	750.08032	-689.65070	144.24184	576.72803	-728.00684	247.04697	578.50214	-672.24481	19.87942	521.23090	-770.39471	255.29074	504.90039	-675.48425	205.94443	533.40753	-722.96960	251.46808	642.18298	-666.12921	-68.44427	161.54237	-710.90698	152.08485	216.62498	-882.48743	296.05096	144.59955	-674.52765	54.27408	157.81361	-603.12354	17.64736	166.64833	-594.49170	222.90256	173.18198	-667.58069	299.38110	159.37691	-630.38123	307.73077	162.39410	-560.90570	262.00449	166.10535	-528.27954	304.45236	146.40370	-690.36725	129.57903	1853.75549	-692.55035	306.05005	1531.69727	-624.81940	-80.26517	158.32257	-517.70941	-72.15873	142.91373	-795.15497	171.31650	184.85271	-771.07733	220.89777	205.23723	-790.03015	103.24870	1060.90527	-767.89124	-3.79899	208.05800	-793.31793	57.66270	175.96089	-769.02240	-31.14573	490.84708	-561.76636	-41.48153	165.39717	-876.03320	-78.59757	141.50241	-602.76978	116.72620	1438.93701	-706.24847	-25.42695	615.92126	-720.36963	-22.56575	569.47778	-674.78870	173.36867	156.23911	-591.61255	-4.82738	1050.39453	-580.32874	223.49329	1067.87573	-647.23242	-68.66637	864.93164	-715.43152	77.85054	216.37878	
446	8.900	-676.84802	-58.47387	1554.73376	-701.34937	-48.34497	720.39081	-590.23138	-1.48733	801.61969	-637.28986	283.97397	877.99023	-583.89447	219.24307	814.95996	-693.77008	83.49094	577.57367	-690.97430	276.79163	750.05310	-689.20001	144.15239	576.74548	-727.89001	246.32709	578.13855	-672.00037	19.75192	521.22284	-770.44312	255.35585	504.91721	-675.48895	205.73256	533.50262	-723.08044	251.66560	642.62140	-666.17743	-68.48733	161.62418	-710.82416	152.04512	216.56047	-882.60809	296.10962	144.48091	-674.53522	54.12793	157.78249	-603.25549	17.73247	166.52776	-594.40405	222.88863	173.27010	-667.63129	299.30902	159.55092	-630.32367	307.96304	162.37526	-560.85468	262.04126	166.16782	-528.12280	304.28763	146.42749	-690.34351	129.54993	1853.76904	-692.55035	306.05005	1531.69727	-624.87659	-80.28964	158.29105	-517.71375	-72.34210	142.97836	-795.37689	171.09038	184.93205	-771.02637	220.96077	205.24467	-790.04022	103.31174	1061.00195	-767.90619	-3.74342	208.11299	-793.38617	57.74610	175.91103	-769.08356	-31.16203	490.80774	-561.73407	-41.41716	165.40086	-875.85522	-78.73365	141.22168	-602.76978	116.72620	1438.93701	-706.25183	-25.53866	615.88159	-720.37738	-22.64561	569.39746	-674.75818	173.08171	156.63683	-591.83435	-4.90135	1050.49976	-580.28705	223.46434	1067.73450	-647.13495	-68.70134	865.01099	-715.54999	78.15968	216.42973	
447	8.920	-676.88000	-58.50022	1554.68225	-701.18152	-48.55742	720.24207	-590.31183	-1.61947	801.47882	-637.29797	284.04709	878.03625	-583.89447	219.24307	814.95996	-693.84711	83.21298	577.54523	-691.03149	276.90805	750.36981	-689.93256	144.32701	576.59027	-727.76007	246.51631	578.05609	-672.00037	19.75192	521.22284	-770.44427	255.37549	504.86267	-675.66010	205.81947	533.46045	-722.80139	251.32971	642.18951	-666.17743	-68.48733	161.62418	-710.90698	152.08485	216.62498	-882.70691	296.05905	144.52444	-674.59125	54.24221	158.00288	-603.11365	17.71131	166.50490	-594.44818	222.79301	173.24167	-667.52576	299.29492	159.53905	-630.41577	307.59558	162.21822	-560.90570	262.00449	166.10535	-527.99475	304.39630	146.60587	-690.32318	129.37669	1853.75452	-692.56042	305.93820	1531.75977	-624.86603	-80.19669	158.27570	-517.72675	-72.26929	142.89160	-795.11737	171.20299	184.94003	-771.01215	220.98543	205.26016	-789.96680	103.28580	1060.96045	-767.99994	-3.71062	208.07822	-793.31793	57.66270	175.96089	-769.07001	-31.08158	490.87225	-561.83875	-41.36245	165.38153	-875.87347	-78.77656	141.15236	-602.71906	116.62321	1439.02246	-706.25183	-25.53866	615.88159	-720.37738	-22.64561	569.39746	-675.01416	173.10799	156.30228	-591.71375	-4.73052	1050.33093	-580.28705	223.46434	1067.73450	-647.23242	-68.66637	864.93164	-715.53918	77.98636	216.39803	
448	8.940	-676.80774	-58.72749	1554.61768	-701.10999	-48.41849	720.31665	-589.95435	-1.77023	801.70160	-637.35028	284.02548	878.10986	-583.88635	219.20078	815.13116	-693.84711	83.21298	577.54523	-691.11823	276.45581	749.83411	-689.85754	144.10295	576.84021	-727.97858	246.56819	578.27130	-672.10510	19.71595	521.17914	-770.60944	255.52214	504.94958	-675.51501	205.62489	533.35736	-722.98132	251.37531	642.30804	-666.22430	-68.36443	161.58760	-710.90698	152.08485	216.62498	-882.61108	296.08881	144.60971	-674.59125	54.24221	158.00288	-602.95709	17.68693	166.88773	-594.41650	223.01158	173.23436	-667.61029	299.34518	159.51982	-630.52618	307.53259	162.25418	-560.84784	261.90314	166.13853	-528.16980	304.08307	146.45369	-690.32343	129.34732	1853.78625	-692.59009	305.80145	1531.67078	-624.69702	-80.22388	158.21712	-517.77710	-72.16318	143.01097	-795.14886	171.02728	184.64980	-771.06171	220.95561	205.18088	-790.01477	103.31609	1061.07739	-767.90161	-3.84982	207.97208	-793.38617	57.74610	175.91103	-768.94934	-31.20545	490.85718	-561.82532	-41.27917	165.24704	-875.82855	-78.79845	141.17526	-602.76978	116.72620	1438.93701	-706.16724	-25.60984	615.88055	-720.26300	-22.62265	569.28064	-674.75818	173.08171	156.63683	-591.74127	-4.94848	1050.42493	-580.33545	223.57124	1067.62866	-647.07971	-68.76867	865.01385	-715.56494	78.05051	216.63701	
449	8.960	-676.90381	-58.67862	1554.59106	-701.03192	-48.20334	720.20258	-590.12708	-1.59089	801.38531	-637.21753	283.86063	877.93182	-584.06622	219.12430	814.96381	-693.84711	83.21298	577.54523	-690.96399	276.59036	750.01117	-689.68805	144.13203	576.63434	-727.91205	246.78870	578.35992	-671.95471	19.68415	521.19733	-770.48138	255.27237	504.91296	-675.63434	205.72806	533.23230	-722.92926	251.46475	642.28680	-666.17743	-68.48733	161.62418	-710.82416	152.04512	216.56047	-882.54816	295.98453	144.43971	-674.59125	54.24221	158.00288	-603.17548	17.64709	166.70570	-594.36914	222.96078	173.23360	-667.66473	299.41653	159.63460	-630.40656	308.01843	162.51826	-560.92615	261.96265	166.28581	-528.12280	304.28763	146.42749	-690.30707	129.24535	1853.84546	-692.75775	305.61780	1531.62219	-624.64374	-80.08976	158.14038	-517.71375	-72.34210	142.97836	-795.06262	171.14061	184.94899	-770.95728	221.12231	205.30519	-790.00281	103.26553	1061.01038	-767.95154	-3.76406	208.08244	-793.43707	57.78764	175.87134	-768.84515	-31.36570	490.88519	-561.67755	-41.41287	165.34256	-875.87347	-78.77656	141.15236	-602.71906	116.62321	1439.02246	-706.01434	-25.54770	615.84369	-720.35327	-22.49666	569.14832	-674.78870	173.36867	156.23911	-591.76581	-4.90085	1050.26685	-580.32874	223.49329	1067.87573	-646.96027	-68.83048	864.92194	-715.47351	78.10867	216.35645	
